<?xml version="1.0" encoding="UTF-8" standalone="no"?>
<svg id="Layer_1" xmlns:rdf="http://www.w3.org/1999/02/22-rdf-syntax-ns#" xmlns="http://www.w3.org/2000/svg" enable-background="new 0 0 1000 620" xml:space="preserve" height="80" viewBox="0 0 80 80.000001" width="80" version="1.1" xmlns:i="&amp;#38;ns_ai;" y="0px" x="0px" xmlns:cc="http://creativecommons.org/ns#" xmlns:xlink="http://www.w3.org/1999/xlink" xmlns:dc="http://purl.org/dc/elements/1.1/"><metadata id="metadata41"><rdf:RDF><cc:Work rdf:about=""><dc:format>image/svg+xml</dc:format><dc:type rdf:resource="http://purl.org/dc/dcmitype/StillImage"/><dc:title/></cc:Work></rdf:RDF></metadata><defs id="defs39"/><path id="path15" d="m74.717,20.131c-0.8202-1.4328-1.9524-2.5738-3.2594-3.392l-24.485-14.26-2.1555-1.2555-0.10399-0.06c-1.358-0.73513-2.91-1.1579-4.563-1.1636h-0.04031c-1.6376,0-3.1792,0.40909-4.531,1.1285l-0.09431,0.0548-6.0259,3.4476-20.704,11.852-0.029019,0.0161c-1.3184,0.80851-2.4598,1.9411-3.2905,3.3703-0.83269,1.4268-1.2563,2.9797-1.3103,4.5226v0.2007l-0.11527,30.541v0.20071c0.040304,1.5429,0.45141,3.0986,1.2732,4.5355,0.81738,1.4312,1.9507,2.5734,3.2594,3.3884l26.744,15.579c1.3599,0.73515,2.9104,1.1563,4.5621,1.1624h0.03869c1.636,0,3.1756-0.4099,4.5278-1.1261l2.0717-1.1866,24.786-14.184,0.0032-0.002c1.3163-0.8069,2.4582-1.9403,3.2905-3.3686,0.83148-1.4268,1.2527-2.9777,1.3043-4.5206l0.05078-12.738,0.06812-18.208c-0.04151-1.5441-0.45222-3.0998-1.2728-4.5351z" fill="#000"/><path id="path3833" fill="#FFF" d="M72.981,21.124c-0.779-1.361-1.854-2.445-3.096-3.222l-23.261-13.547-2.048-1.1927-0.09879-0.057c-1.2892-0.69839-2.7637-1.1001-4.334-1.1054h-0.03829c-1.5557,0-3.0203,0.38864-4.3045,1.0721l-0.08959,0.05206-5.7246,3.2753-19.669,11.26-0.02757,0.01529c-1.2524,0.76809-2.3368,1.844-3.1259,3.2018-0.79106,1.3554-1.1935,2.8307-1.2448,4.2964v0.19066l-0.1077,29.013v0.19068c0.038289,1.4657,0.42884,2.9437,1.2096,4.3087,0.77651,1.3596,1.8532,2.4448,3.0965,3.219l25.407,14.8c1.2919,0.69839,2.7649,1.0985,4.334,1.1043h0.03676c1.5542,0,3.0168-0.3894,4.3014-1.0698l1.9681-1.1272,23.546-13.475,0.003-0.0019c1.2505-0.76656,2.3353-1.8432,3.1259-3.2002,0.78991-1.3554,1.19-2.8288,1.239-4.2945l0.04824-12.101,0.06471-17.297c-0.03943-1.4669-0.42961-2.9448-1.2092-4.3083z"/></svg>
