<?xml version="1.0" encoding="utf-8"?>
<!-- Generator: Adobe Illustrator 18.1.1, SVG Export Plug-In . SVG Version: 6.00 Build 0)  -->
<!DOCTYPE svg PUBLIC "-//W3C//DTD SVG 1.1//EN" "http://www.w3.org/Graphics/SVG/1.1/DTD/svg11.dtd">
<svg version="1.1" id="Layer_1" xmlns="http://www.w3.org/2000/svg" xmlns:xlink="http://www.w3.org/1999/xlink" x="0px" y="0px"
	 viewBox="0 0 120 75" enable-background="new 0 0 120 75" xml:space="preserve">
<g>
	<path fill="#E8E5DD" d="M9.6,27.3"/>
	<path fill="#E8E5DD" d="M12.6,27.3"/>
	<path fill="#E8E5DD" d="M9.6,27.3l3.4-6.2c0,0,0-0.1,0.1-0.1c0,0,0,0,0,0c0,0,0,0,0-0.1c0,0,0,0,0.1-0.1c0,0,0,0,0,0
		c0,0,0,0,0.1-0.1c0,0,0,0,0,0c0,0,0,0,0.1,0c0,0,0,0,0,0c0,0,0,0,0.1,0c0,0,0,0,0.1,0c0,0,0,0,0,0c0,0,0,0,0.1,0c0,0,0,0,0,0
		c0,0,0.1,0,0.1,0c0,0,0,0,0,0c0,0,0,0,0.1,0c0,0,0.1,0,0.1,0c0,0,0,0,0,0c0,0,0.1,0,0.1,0h13.4c0.2-0.1,0.3-0.2,0.3-0.4
		c0-0.2-0.1-0.4-0.4-0.5H16c-0.5,0-0.9-0.2-1.1-0.6c-0.2-0.4-0.2-0.9,0-1.3l7.5-13.8c0.3-0.6,1.1-0.9,1.7-0.6
		c6.4,2.7,10.6,9,10.6,15.9c0,9.5-7.8,17.3-17.3,17.3S0,28.6,0,19.1S7.8,1.8,17.3,1.8c0.7,0,1.5,0,2.2,0.1c0.7,0.1,1.2,0.8,1.1,1.5
		c-0.1,0.7-0.8,1.2-1.5,1.1c-0.6-0.1-1.2-0.1-1.9-0.1C9.2,4.4,2.7,11,2.7,19.1c0,8.1,6.6,14.7,14.7,14.7S32,27.2,32,19.1
		c0-5.5-3.1-10.5-7.9-13l-5.8,10.7h9.5c0.1,0,0.3,0,0.4,0.1c1.5,0.5,2.4,1.8,2.3,3.2c0,1.4-1,2.5-2.4,2.9c-0.1,0-0.2,0-0.3,0H14.9
		l-2.3,4.2L9.6,27.3z"/>
</g>
<g>
	<path fill="#E8E5DD" d="M8.2,48.2h3.4l8.2,18.9h-4.7l-1.6-4H6.2l-1.6,4H0L8.2,48.2z M9.8,53.7l-2.3,5.9h4.6L9.8,53.7z"/>
	<path fill="#E8E5DD" d="M21.1,54.1h3.8v1.8H25c0.1-0.2,0.3-0.5,0.5-0.7c0.2-0.2,0.5-0.5,0.8-0.7c0.3-0.2,0.7-0.4,1.1-0.5
		c0.4-0.1,0.9-0.2,1.3-0.2c0.9,0,1.7,0.2,2.4,0.6c0.7,0.4,1.2,1,1.6,1.8c0.5-0.8,1-1.4,1.7-1.8c0.7-0.4,1.5-0.5,2.4-0.5
		c0.9,0,1.6,0.1,2.2,0.4c0.6,0.3,1.1,0.7,1.4,1.2c0.3,0.5,0.6,1.1,0.7,1.8c0.2,0.7,0.2,1.4,0.2,2.2v7.7h-4v-7.6
		c0-0.6-0.1-1.1-0.4-1.6c-0.3-0.4-0.7-0.7-1.4-0.7c-0.5,0-0.9,0.1-1.2,0.2c-0.3,0.2-0.6,0.4-0.7,0.6c-0.2,0.3-0.3,0.6-0.4,0.9
		c-0.1,0.4-0.1,0.7-0.1,1.1v6.9h-4v-6.9c0-0.2,0-0.5,0-0.9c0-0.3-0.1-0.7-0.2-1c-0.1-0.3-0.3-0.6-0.5-0.8c-0.2-0.2-0.6-0.3-1.1-0.3
		c-0.5,0-0.9,0.1-1.3,0.3c-0.3,0.2-0.6,0.4-0.7,0.7c-0.2,0.3-0.3,0.7-0.3,1.1c-0.1,0.4-0.1,0.8-0.1,1.2v6.5h-4V54.1z"/>
	<path fill="#E8E5DD" d="M44.3,54.1H48v1.7h0.1c0.2-0.2,0.4-0.5,0.6-0.7c0.3-0.2,0.6-0.5,0.9-0.7c0.3-0.2,0.7-0.4,1.1-0.5
		c0.4-0.1,0.8-0.2,1.3-0.2c1,0,1.8,0.2,2.6,0.5c0.8,0.3,1.5,0.8,2,1.4c0.6,0.6,1,1.3,1.3,2.1c0.3,0.8,0.5,1.7,0.5,2.7
		c0,0.9-0.1,1.8-0.4,2.6c-0.3,0.8-0.7,1.6-1.2,2.2c-0.5,0.6-1.1,1.2-1.9,1.5c-0.7,0.4-1.6,0.6-2.5,0.6c-0.8,0-1.6-0.1-2.3-0.4
		c-0.7-0.3-1.3-0.7-1.8-1.3h-0.1v7.5h-4V54.1z M48,60.6c0,1,0.3,1.8,0.8,2.4c0.6,0.6,1.3,0.9,2.4,0.9s1.8-0.3,2.4-0.9
		c0.6-0.6,0.8-1.4,0.8-2.4c0-1-0.3-1.8-0.8-2.4c-0.6-0.6-1.3-0.9-2.4-0.9s-1.8,0.3-2.4,0.9C48.3,58.9,48,59.7,48,60.6z"/>
	<path fill="#E8E5DD" d="M60.5,54.1h4v2.1h0.1c0.4-0.8,0.9-1.4,1.5-1.8c0.6-0.4,1.3-0.6,2.2-0.6c0.2,0,0.5,0,0.7,0
		c0.2,0,0.4,0.1,0.6,0.1v3.7c-0.3-0.1-0.6-0.2-0.8-0.2c-0.3,0-0.6-0.1-0.9-0.1c-0.8,0-1.4,0.1-1.8,0.3c-0.4,0.2-0.8,0.5-1,0.9
		c-0.2,0.4-0.4,0.8-0.5,1.4c-0.1,0.5-0.1,1.1-0.1,1.8v5.4h-4V54.1z"/>
	<path fill="#E8E5DD" d="M70.6,60.6c0-1,0.2-2,0.6-2.8c0.4-0.8,0.9-1.6,1.5-2.2c0.7-0.6,1.4-1.1,2.3-1.4s1.8-0.5,2.8-0.5
		c1,0,1.9,0.2,2.8,0.5s1.6,0.8,2.3,1.4c0.7,0.6,1.2,1.3,1.5,2.2c0.4,0.8,0.6,1.8,0.6,2.8c0,1-0.2,2-0.6,2.8
		c-0.4,0.8-0.9,1.6-1.5,2.2c-0.7,0.6-1.4,1.1-2.3,1.4c-0.9,0.3-1.8,0.5-2.8,0.5c-1,0-1.9-0.2-2.8-0.5c-0.9-0.3-1.6-0.8-2.3-1.4
		c-0.7-0.6-1.2-1.3-1.5-2.2C70.8,62.6,70.6,61.7,70.6,60.6z M74.6,60.6c0,1,0.3,1.8,0.8,2.4c0.6,0.6,1.3,0.9,2.4,0.9
		s1.8-0.3,2.4-0.9c0.6-0.6,0.8-1.4,0.8-2.4c0-1-0.3-1.8-0.8-2.4c-0.6-0.6-1.3-0.9-2.4-0.9s-1.8,0.3-2.4,0.9
		C74.9,58.9,74.6,59.7,74.6,60.6z"/>
	<path fill="#E8E5DD" d="M87.1,46.9h4v20.2h-4V46.9z"/>
	<path fill="#E8E5DD" d="M106,64.9c-0.6,0.8-1.5,1.5-2.4,1.9c-1,0.4-2,0.7-3,0.7c-1,0-1.9-0.2-2.8-0.5c-0.9-0.3-1.6-0.8-2.3-1.4
		c-0.7-0.6-1.2-1.3-1.5-2.2c-0.4-0.8-0.6-1.8-0.6-2.8c0-1,0.2-2,0.6-2.8c0.4-0.8,0.9-1.6,1.5-2.2c0.7-0.6,1.4-1.1,2.3-1.4
		c0.9-0.3,1.8-0.5,2.8-0.5c0.9,0,1.8,0.2,2.5,0.5c0.8,0.3,1.4,0.8,1.9,1.4c0.5,0.6,0.9,1.3,1.2,2.2c0.3,0.8,0.4,1.8,0.4,2.8v1.3
		h-9.3c0.2,0.8,0.5,1.4,1,1.8c0.5,0.5,1.2,0.7,2,0.7c0.7,0,1.2-0.1,1.7-0.4c0.5-0.3,0.9-0.7,1.2-1.1L106,64.9z M102.6,59.2
		c0-0.7-0.2-1.3-0.7-1.7c-0.5-0.5-1.1-0.7-1.8-0.7c-0.4,0-0.8,0.1-1.2,0.2c-0.3,0.1-0.6,0.3-0.9,0.5s-0.4,0.5-0.6,0.8
		c-0.1,0.3-0.2,0.6-0.2,0.9H102.6z"/>
	<path fill="#E8E5DD" d="M117.4,58.3c-0.2-0.3-0.5-0.5-0.8-0.7c-0.4-0.2-0.7-0.3-1.1-0.3c-1,0-1.8,0.3-2.4,0.9
		c-0.6,0.6-0.8,1.4-0.8,2.4c0,1,0.3,1.8,0.8,2.4c0.6,0.6,1.3,0.9,2.4,0.9c0.4,0,0.8-0.1,1.1-0.3c0.3-0.2,0.6-0.4,0.8-0.7l2.6,2.8
		c-0.6,0.6-1.4,1.1-2.2,1.3c-0.8,0.3-1.7,0.4-2.4,0.4c-1,0-1.9-0.2-2.8-0.5c-0.9-0.3-1.6-0.8-2.3-1.4c-0.7-0.6-1.2-1.3-1.5-2.2
		c-0.4-0.8-0.6-1.8-0.6-2.8c0-1,0.2-2,0.6-2.8c0.4-0.8,0.9-1.6,1.5-2.2c0.7-0.6,1.4-1.1,2.3-1.4c0.9-0.3,1.8-0.5,2.8-0.5
		c0.8,0,1.6,0.1,2.4,0.4c0.8,0.3,1.6,0.7,2.2,1.3L117.4,58.3z"/>
</g>
</svg>
