<?xml version="1.0" encoding="utf-8"?>
<!-- Generator: Adobe Illustrator 18.1.1, SVG Export Plug-In . SVG Version: 6.00 Build 0)  -->
<!DOCTYPE svg PUBLIC "-//W3C//DTD SVG 1.1//EN" "http://www.w3.org/Graphics/SVG/1.1/DTD/svg11.dtd">
<svg version="1.1" id="Layer_1" xmlns="http://www.w3.org/2000/svg" xmlns:xlink="http://www.w3.org/1999/xlink" x="0px" y="0px"
	 viewBox="0 0 200 100" enable-background="new 0 0 200 100" xml:space="preserve">
<g>
	<path fill="#1D1D1B" d="M183.1,52.5V60c0,0.5-0.4,0.9-0.9,0.9H182c-0.5,0-0.9-0.4-0.9-0.9V42.4c0-0.5,0.4-0.9,0.9-0.9h0.2
		c0.5,0,0.9,0.4,0.9,0.9v7.7H200v-9.6c0-0.5-0.4-0.9-0.9-0.9h-34.3c-0.5,0-0.9,0.4-0.9,0.9v21.4c0,0.5,0.4,0.9,0.9,0.9h34.3
		c0.5,0,0.9-0.4,0.9-0.9v-9.4H183.1"/>
	<path fill="#1D1D1B" d="M141,56.6h-20.7c-0.5,0-0.9-0.4-0.9-0.9v-0.2c0-0.5,0.4-0.9,0.9-0.9H141V48h-20.7c-0.5,0-0.9-0.4-0.9-0.9
		v-0.2c0-0.5,0.4-0.9,0.9-0.9H141v-6.5h-34c-0.5,0-0.9,0.4-0.9,0.9v21.4c0,0.5,0.4,0.9,0.9,0.9h34V56.6"/>
	<rect x="143.6" y="39.6" fill="#1D1D1B" width="17.7" height="23.1"/>
	<path fill="#C40637" d="M58.1,19.3V4.5c0-0.5-0.4-0.9-0.9-0.9H38.2c-0.5,0-0.9,0.4-0.9,0.9v14.8H58.1"/>
	<path fill="#C40637" d="M37.4,21.2v74.3c0,0.5,0.4,0.9,0.9,0.9h19.1c0.5,0,0.9-0.4,0.9-0.9V21.2H37.4"/>
	<path fill="#C40637" d="M80.4,52.5V60c0,0.5-0.4,0.9-0.9,0.9h-0.2c-0.5,0-0.9-0.4-0.9-0.9V42.4c0-0.5,0.4-0.9,0.9-0.9h0.2
		c0.5,0,0.9,0.4,0.9,0.9v7.7h16.9v-9.6c0-0.5-0.4-0.9-0.9-0.9H62.2c-0.5,0-0.9,0.4-0.9,0.9v21.4c0,0.5,0.4,0.9,0.9,0.9h34.3
		c0.5,0,0.9-0.4,0.9-0.9v-9.4H80.4"/>
	<path fill="#C40637" d="M24.8,39.6l-0.2,6.9l-5.9-6.9H0.9C0.4,39.6,0,40,0,40.5v21.4c0,0.5,0.4,0.9,0.9,0.9h9l0.2-7l6,7h18.2V39.6
		H24.8"/>
</g>
</svg>
