<?xml version="1.0" encoding="utf-8"?>
<!-- Generator: Adobe Illustrator 18.1.1, SVG Export Plug-In . SVG Version: 6.00 Build 0)  -->
<!DOCTYPE svg PUBLIC "-//W3C//DTD SVG 1.1//EN" "http://www.w3.org/Graphics/SVG/1.1/DTD/svg11.dtd">
<svg version="1.1" id="Layer_1" xmlns="http://www.w3.org/2000/svg" xmlns:xlink="http://www.w3.org/1999/xlink" x="0px" y="0px"
	 viewBox="7.5 220 420 200" enable-background="new 7.5 220 420 200" xml:space="preserve">
<g>
	<g>
		<path fill="#211004" d="M230.8,300.9v12.6c-0.6,0.4-1.3,0.7-2.1,1c-0.8,0.3-1.6,0.5-2.5,0.7c-0.9,0.2-1.7,0.4-2.6,0.5
			s-1.7,0.1-2.5,0.1c-2.2,0-4.1-0.4-5.8-1.1c-1.7-0.7-3.1-1.7-4.3-2.9c-1.2-1.2-2.1-2.6-2.7-4.3c-0.6-1.6-0.9-3.3-0.9-5.1
			c0-1.9,0.3-3.7,1-5.3c0.7-1.6,1.6-3,2.7-4.2c1.2-1.2,2.6-2.1,4.2-2.8c1.6-0.7,3.4-1,5.4-1c2.4,0,4.3,0.3,5.8,0.9
			c1.5,0.6,2.7,1.4,3.7,2.4l-2.4,2.6c-1.1-1-2.2-1.7-3.3-2.1c-1.2-0.4-2.4-0.6-3.7-0.6c-1.5,0-2.8,0.3-4,0.8c-1.2,0.5-2.2,1.3-3,2.2
			c-0.8,0.9-1.5,2-1.9,3.2c-0.5,1.2-0.7,2.6-0.7,3.9c0,1.4,0.3,2.8,0.8,4c0.5,1.2,1.2,2.3,2.1,3.2c0.9,0.9,1.9,1.6,3.1,2.1
			c1.2,0.5,2.5,0.8,3.9,0.8c1.2,0,2.4-0.1,3.5-0.3c1.1-0.2,2-0.6,2.8-1v-7.1h-5.7v-3.2H230.8z"/>
		<path fill="#211004" d="M235.2,306.6c0-1.2,0.2-2.4,0.7-3.5c0.5-1.1,1.1-2,1.9-2.8c0.8-0.8,1.8-1.5,2.9-1.9
			c1.1-0.5,2.3-0.7,3.6-0.7s2.5,0.2,3.6,0.7c1.1,0.5,2.1,1.1,2.9,1.9c0.8,0.8,1.5,1.8,1.9,2.8s0.7,2.2,0.7,3.5
			c0,1.2-0.2,2.4-0.7,3.5c-0.5,1.1-1.1,2-1.9,2.8c-0.8,0.8-1.8,1.4-2.9,1.9c-1.1,0.5-2.3,0.7-3.6,0.7s-2.5-0.2-3.6-0.7
			c-1.1-0.5-2.1-1.1-2.9-1.9c-0.8-0.8-1.5-1.8-1.9-2.8C235.4,309,235.2,307.9,235.2,306.6z M238.6,306.6c0,0.9,0.1,1.7,0.4,2.4
			c0.3,0.7,0.6,1.4,1.1,1.9c0.5,0.5,1.1,0.9,1.8,1.2c0.7,0.3,1.5,0.5,2.3,0.5c0.9,0,1.6-0.1,2.3-0.5c0.7-0.3,1.3-0.7,1.8-1.2
			c0.5-0.5,0.9-1.1,1.1-1.9c0.3-0.7,0.4-1.5,0.4-2.4c0-0.9-0.1-1.7-0.4-2.4c-0.3-0.7-0.6-1.4-1.1-1.9c-0.5-0.5-1.1-0.9-1.8-1.2
			c-0.7-0.3-1.5-0.5-2.3-0.5c-0.9,0-1.6,0.2-2.3,0.5c-0.7,0.3-1.3,0.7-1.8,1.2c-0.5,0.5-0.9,1.1-1.1,1.9
			C238.8,305,238.6,305.8,238.6,306.6z"/>
		<path fill="#211004" d="M254.4,298.1h3.7l5.1,13.1l4.9-13.1h3.5l-6.7,17.1h-3.6L254.4,298.1z"/>
		<path fill="#211004" d="M276.2,307.8c0,0.7,0.2,1.4,0.5,2c0.3,0.6,0.8,1.1,1.3,1.6c0.5,0.4,1.1,0.8,1.8,1c0.7,0.2,1.4,0.4,2.2,0.4
			c1,0,1.9-0.2,2.6-0.7c0.7-0.5,1.4-1.1,2.1-1.9l2.4,1.9c-1.8,2.3-4.3,3.5-7.6,3.5c-1.3,0-2.6-0.2-3.7-0.7s-2-1.1-2.8-1.9
			c-0.8-0.8-1.3-1.8-1.7-2.8c-0.4-1.1-0.6-2.3-0.6-3.5c0-1.3,0.2-2.5,0.7-3.5c0.4-1.1,1.1-2,1.8-2.8c0.8-0.8,1.7-1.4,2.8-1.9
			c1.1-0.5,2.3-0.7,3.5-0.7c1.5,0,2.8,0.3,3.8,0.8c1,0.5,1.9,1.2,2.6,2.1c0.7,0.9,1.2,1.8,1.5,2.9c0.3,1.1,0.5,2.2,0.5,3.3v1.2
			H276.2z M286.4,305.2c0-0.7-0.1-1.4-0.3-2c-0.2-0.6-0.5-1.1-0.9-1.6c-0.4-0.4-0.9-0.8-1.5-1c-0.6-0.3-1.3-0.4-2.1-0.4
			c-0.8,0-1.5,0.1-2.2,0.4c-0.7,0.3-1.2,0.7-1.7,1.2c-0.5,0.5-0.8,1-1.1,1.6c-0.3,0.6-0.4,1.2-0.4,1.7H286.4z"/>
		<path fill="#211004" d="M293.7,298.1h3.2v2.6h0.1c0.2-0.5,0.5-0.9,0.9-1.2c0.4-0.4,0.8-0.7,1.2-1s0.9-0.5,1.5-0.6
			c0.5-0.2,1.1-0.2,1.6-0.2c0.5,0,1,0.1,1.4,0.2l-0.1,3.5c-0.3-0.1-0.5-0.1-0.8-0.2c-0.3,0-0.5-0.1-0.8-0.1c-1.6,0-2.8,0.4-3.6,1.3
			c-0.8,0.9-1.3,2.3-1.3,4.1v8.6h-3.2V298.1z"/>
		<path fill="#211004" d="M306.6,298.1h3.2v2.6h0.1c0.4-0.9,1.1-1.6,2.1-2.2s2.2-0.8,3.5-0.8c0.8,0,1.6,0.1,2.4,0.4
			c0.8,0.3,1.4,0.6,2,1.2c0.6,0.5,1,1.2,1.4,2c0.3,0.8,0.5,1.8,0.5,2.9v11h-3.2v-10.1c0-0.8-0.1-1.5-0.3-2s-0.5-1-0.9-1.4
			c-0.4-0.3-0.8-0.6-1.2-0.8c-0.5-0.2-1-0.2-1.5-0.2c-0.7,0-1.3,0.1-1.9,0.3c-0.6,0.2-1.1,0.6-1.5,1c-0.4,0.5-0.8,1.1-1,1.8
			c-0.2,0.7-0.4,1.6-0.4,2.6v8.8h-3.2V298.1z"/>
		<path fill="#211004" d="M326.4,298.1h3v2.7h0.1c0.1-0.2,0.3-0.5,0.6-0.9c0.3-0.4,0.7-0.7,1.2-1c0.5-0.3,1-0.6,1.7-0.8
			c0.6-0.2,1.3-0.3,2.1-0.3c1.3,0,2.3,0.3,3.2,0.8c0.9,0.5,1.6,1.3,2.1,2.4c0.6-1.1,1.3-1.8,2.3-2.4c1-0.5,2-0.8,3.1-0.8
			c1.3,0,2.4,0.2,3.2,0.6c0.8,0.4,1.5,1,2,1.7c0.5,0.7,0.8,1.5,1,2.4s0.3,1.8,0.3,2.8v9.9H349v-9.5c0-0.6,0-1.3-0.1-1.9
			c-0.1-0.6-0.3-1.1-0.5-1.6c-0.3-0.5-0.6-0.8-1.1-1.1c-0.5-0.3-1.1-0.4-1.9-0.4c-1.6,0-2.7,0.5-3.3,1.4c-0.7,1-1,2.2-1,3.7v9.3
			h-3.2v-8.9c0-0.8,0-1.6-0.1-2.2c-0.1-0.7-0.3-1.3-0.5-1.7c-0.3-0.5-0.6-0.9-1.1-1.2c-0.5-0.3-1.1-0.4-1.9-0.4
			c-0.6,0-1.1,0.1-1.7,0.3s-1,0.6-1.4,1c-0.4,0.5-0.7,1-1,1.7c-0.2,0.7-0.4,1.5-0.4,2.5v8.9h-3.2V298.1z"/>
		<path fill="#211004" d="M359.4,307.8c0,0.7,0.2,1.4,0.5,2c0.3,0.6,0.8,1.1,1.3,1.6c0.5,0.4,1.1,0.8,1.8,1c0.7,0.2,1.4,0.4,2.2,0.4
			c1,0,1.9-0.2,2.6-0.7c0.7-0.5,1.4-1.1,2.1-1.9l2.4,1.9c-1.8,2.3-4.3,3.5-7.6,3.5c-1.3,0-2.6-0.2-3.7-0.7c-1.1-0.5-2-1.1-2.8-1.9
			c-0.8-0.8-1.3-1.8-1.7-2.8c-0.4-1.1-0.6-2.3-0.6-3.5c0-1.3,0.2-2.5,0.7-3.5c0.4-1.1,1.1-2,1.8-2.8c0.8-0.8,1.7-1.4,2.8-1.9
			c1.1-0.5,2.3-0.7,3.5-0.7c1.5,0,2.8,0.3,3.8,0.8c1,0.5,1.9,1.2,2.6,2.1s1.2,1.8,1.5,2.9c0.3,1.1,0.5,2.2,0.5,3.3v1.2H359.4z
			 M369.6,305.2c0-0.7-0.1-1.4-0.3-2c-0.2-0.6-0.5-1.1-0.9-1.6c-0.4-0.4-0.9-0.8-1.5-1s-1.3-0.4-2.1-0.4c-0.8,0-1.5,0.1-2.2,0.4
			c-0.7,0.3-1.2,0.7-1.7,1.2c-0.5,0.5-0.8,1-1.1,1.6c-0.3,0.6-0.4,1.2-0.4,1.7H369.6z"/>
		<path fill="#211004" d="M376.9,298.1h3.2v2.6h0.1c0.4-0.9,1.1-1.6,2.1-2.2s2.2-0.8,3.5-0.8c0.8,0,1.6,0.1,2.4,0.4
			c0.8,0.3,1.4,0.6,2,1.2c0.6,0.5,1,1.2,1.4,2c0.3,0.8,0.5,1.8,0.5,2.9v11h-3.2v-10.1c0-0.8-0.1-1.5-0.3-2s-0.5-1-0.9-1.4
			c-0.4-0.3-0.8-0.6-1.2-0.8c-0.5-0.2-1-0.2-1.5-0.2c-0.7,0-1.3,0.1-1.9,0.3c-0.6,0.2-1.1,0.6-1.5,1c-0.4,0.5-0.8,1.1-1,1.8
			c-0.2,0.7-0.4,1.6-0.4,2.6v8.8h-3.2V298.1z"/>
		<path fill="#211004" d="M406,300.9h-4.6v7.7c0,0.5,0,1,0,1.4c0,0.5,0.1,0.9,0.3,1.3s0.4,0.7,0.7,0.9c0.3,0.2,0.8,0.3,1.4,0.3
			c0.4,0,0.8,0,1.2-0.1s0.8-0.2,1.1-0.4v3c-0.4,0.2-0.9,0.4-1.5,0.4s-1.1,0.1-1.4,0.1c-1.2,0-2.2-0.2-2.9-0.5
			c-0.7-0.3-1.2-0.8-1.5-1.4c-0.3-0.6-0.5-1.2-0.6-1.9s-0.1-1.4-0.1-2.1v-8.9h-3.7v-2.8h3.7v-4.8h3.2v4.8h4.6V300.9z"/>
		<path fill="#211004" d="M209.1,332.9h16v3.2h-12.6v8h11.7v3.2h-11.7v11h-3.5V332.9z"/>
		<path fill="#211004" d="M228.2,335.2c0-0.6,0.2-1.2,0.7-1.7c0.5-0.5,1-0.7,1.7-0.7c0.6,0,1.2,0.2,1.7,0.7c0.5,0.5,0.7,1,0.7,1.7
			c0,0.6-0.2,1.2-0.7,1.7c-0.5,0.5-1,0.7-1.7,0.7c-0.6,0-1.2-0.2-1.7-0.7S228.2,335.8,228.2,335.2z M228.9,341.3h3.2v17.1h-3.2
			V341.3z"/>
		<path fill="#211004" d="M237,341.3h3.2v2.6h0.1c0.4-0.9,1.1-1.7,2.1-2.2c1-0.6,2.2-0.8,3.5-0.8c0.8,0,1.6,0.1,2.4,0.4
			c0.8,0.3,1.4,0.6,2,1.2c0.6,0.5,1,1.2,1.3,2s0.5,1.8,0.5,2.9v11h-3.2v-10.1c0-0.8-0.1-1.5-0.3-2c-0.2-0.6-0.5-1-0.9-1.4
			c-0.4-0.3-0.8-0.6-1.2-0.8c-0.5-0.2-1-0.2-1.5-0.2c-0.7,0-1.3,0.1-1.9,0.3c-0.6,0.2-1.1,0.6-1.5,1s-0.8,1.1-1,1.8
			c-0.2,0.7-0.4,1.6-0.4,2.6v8.8H237V341.3z"/>
		<path fill="#211004" d="M256.7,343.4c0.9-0.8,2-1.5,3.2-1.9c1.2-0.4,2.4-0.6,3.6-0.6c1.2,0,2.3,0.2,3.2,0.5
			c0.9,0.3,1.6,0.7,2.2,1.3c0.6,0.5,1,1.1,1.3,1.8c0.3,0.7,0.4,1.4,0.4,2.1v8.7c0,0.6,0,1.2,0,1.7c0,0.5,0.1,1,0.1,1.4h-2.9
			c-0.1-0.9-0.1-1.7-0.1-2.6h-0.1c-0.7,1.1-1.6,1.9-2.6,2.3c-1,0.5-2.1,0.7-3.4,0.7c-0.8,0-1.5-0.1-2.3-0.3c-0.7-0.2-1.3-0.5-1.9-1
			c-0.5-0.4-1-1-1.3-1.6s-0.5-1.4-0.5-2.2c0-1.1,0.2-2,0.7-2.8c0.5-0.7,1.2-1.3,2-1.8c0.9-0.5,1.8-0.8,3-1c1.1-0.2,2.4-0.3,3.7-0.3
			h2.4V347c0-0.4-0.1-0.9-0.3-1.3c-0.2-0.4-0.4-0.8-0.8-1.2s-0.8-0.6-1.3-0.8s-1.1-0.3-1.8-0.3c-0.6,0-1.2,0.1-1.6,0.2
			c-0.5,0.1-0.9,0.3-1.3,0.4c-0.4,0.2-0.7,0.4-1,0.6c-0.3,0.2-0.6,0.5-0.9,0.7L256.7,343.4z M265.9,350.1c-0.8,0-1.6,0-2.4,0.1
			c-0.8,0.1-1.5,0.2-2.2,0.5s-1.2,0.6-1.6,1s-0.6,1-0.6,1.7c0,1,0.3,1.7,1,2.1c0.7,0.4,1.6,0.6,2.7,0.6c0.9,0,1.6-0.1,2.3-0.5
			c0.6-0.3,1.1-0.7,1.5-1.2c0.4-0.5,0.7-1,0.8-1.6c0.2-0.6,0.3-1.2,0.3-1.7v-1.1H265.9z"/>
		<path fill="#211004" d="M275.3,341.3h3.2v2.6h0.1c0.4-0.9,1.1-1.7,2.1-2.2c1-0.6,2.2-0.8,3.5-0.8c0.8,0,1.6,0.1,2.4,0.4
			c0.8,0.3,1.4,0.6,2,1.2c0.6,0.5,1,1.2,1.3,2s0.5,1.8,0.5,2.9v11h-3.2v-10.1c0-0.8-0.1-1.5-0.3-2c-0.2-0.6-0.5-1-0.9-1.4
			c-0.4-0.3-0.8-0.6-1.2-0.8c-0.5-0.2-1-0.2-1.5-0.2c-0.7,0-1.3,0.1-1.9,0.3c-0.6,0.2-1.1,0.6-1.5,1s-0.8,1.1-1,1.8
			c-0.2,0.7-0.4,1.6-0.4,2.6v8.8h-3.2V341.3z"/>
		<path fill="#211004" d="M307.2,345.8c-0.6-0.6-1.2-1.1-1.9-1.4c-0.7-0.3-1.4-0.5-2.4-0.5c-0.9,0-1.7,0.2-2.3,0.5s-1.2,0.8-1.7,1.3
			c-0.4,0.6-0.8,1.2-1,1.9s-0.3,1.5-0.3,2.3s0.1,1.5,0.4,2.2c0.3,0.7,0.6,1.3,1.1,1.9c0.5,0.5,1.1,0.9,1.7,1.2
			c0.7,0.3,1.4,0.5,2.3,0.5c0.9,0,1.7-0.2,2.3-0.5c0.6-0.3,1.2-0.8,1.8-1.4l2.3,2.3c-0.8,0.9-1.8,1.6-2.9,2
			c-1.1,0.4-2.3,0.6-3.5,0.6c-1.3,0-2.5-0.2-3.6-0.6c-1.1-0.4-2-1-2.8-1.8c-0.8-0.8-1.4-1.7-1.8-2.8c-0.4-1.1-0.6-2.3-0.6-3.6
			c0-1.3,0.2-2.5,0.6-3.6c0.4-1.1,1-2.1,1.8-2.8s1.7-1.4,2.8-1.9c1.1-0.4,2.3-0.7,3.7-0.7c1.2,0,2.4,0.2,3.6,0.7s2.1,1.1,3,2
			L307.2,345.8z"/>
		<path fill="#211004" d="M311.8,335.2c0-0.6,0.2-1.2,0.7-1.7c0.5-0.5,1-0.7,1.7-0.7c0.6,0,1.2,0.2,1.7,0.7c0.5,0.5,0.7,1,0.7,1.7
			c0,0.6-0.2,1.2-0.7,1.7c-0.5,0.5-1,0.7-1.7,0.7c-0.6,0-1.2-0.2-1.7-0.7S311.8,335.8,311.8,335.2z M312.5,341.3h3.2v17.1h-3.2
			V341.3z"/>
		<path fill="#211004" d="M320.6,341.3h3.2v2.6h0.1c0.4-0.9,1.1-1.7,2.1-2.2c1-0.6,2.2-0.8,3.5-0.8c0.8,0,1.6,0.1,2.4,0.4
			c0.8,0.3,1.4,0.6,2,1.2c0.6,0.5,1,1.2,1.4,2c0.3,0.8,0.5,1.8,0.5,2.9v11h-3.2v-10.1c0-0.8-0.1-1.5-0.3-2c-0.2-0.6-0.5-1-0.9-1.4
			c-0.4-0.3-0.8-0.6-1.2-0.8c-0.5-0.2-1-0.2-1.5-0.2c-0.7,0-1.3,0.1-1.9,0.3c-0.6,0.2-1.1,0.6-1.5,1c-0.4,0.5-0.8,1.1-1,1.8
			s-0.4,1.6-0.4,2.6v8.8h-3.2V341.3z"/>
		<path fill="#211004" d="M357.5,358.2c0,1.3-0.2,2.5-0.7,3.5c-0.4,1.1-1.1,2-1.9,2.8c-0.8,0.8-1.8,1.4-3,1.8
			c-1.2,0.4-2.4,0.6-3.8,0.6c-1.6,0-3.1-0.2-4.5-0.7c-1.4-0.5-2.6-1.2-3.9-2.4l2.2-2.7c0.8,0.9,1.8,1.6,2.7,2.1s2.1,0.7,3.3,0.7
			c1.2,0,2.2-0.2,3-0.5s1.4-0.8,1.9-1.3c0.5-0.6,0.8-1.2,1-1.9s0.3-1.4,0.3-2.1v-2.5h-0.1c-0.6,1-1.5,1.8-2.5,2.3
			c-1.1,0.5-2.2,0.7-3.4,0.7c-1.2,0-2.4-0.2-3.5-0.7c-1.1-0.4-2-1.1-2.8-1.8c-0.8-0.8-1.4-1.7-1.8-2.8c-0.4-1.1-0.6-2.2-0.6-3.5
			c0-1.2,0.2-2.4,0.6-3.5c0.4-1.1,1-2,1.7-2.9c0.8-0.8,1.7-1.5,2.7-1.9c1.1-0.5,2.3-0.7,3.6-0.7c1.2,0,2.3,0.3,3.4,0.8
			c1.1,0.5,1.9,1.2,2.6,2.1h0.1v-2.4h3.2V358.2z M348.7,343.9c-0.9,0-1.6,0.1-2.3,0.4c-0.7,0.3-1.3,0.7-1.8,1.2
			c-0.5,0.5-0.9,1.1-1.1,1.9s-0.4,1.5-0.4,2.4c0,1.7,0.5,3.1,1.5,4.2s2.4,1.6,4.1,1.6c1.7,0,3.1-0.5,4.1-1.6s1.5-2.4,1.5-4.2
			c0-0.9-0.1-1.7-0.4-2.4c-0.3-0.7-0.6-1.4-1.1-1.9c-0.5-0.5-1.1-0.9-1.8-1.2C350.3,344,349.5,343.9,348.7,343.9z"/>
	</g>
	<g>
		<path fill="#211004" d="M7.5,325c0-5.1,0.5-10.2,1.4-15.4c0.9-5.2,2.6-10,4.9-14.2c2.4-4.3,5.6-7.7,9.7-10.4c4.1-2.7,9.3-4,15.7-4
			c6.4,0,11.6,1.3,15.7,4c4.1,2.7,7.3,6.2,9.7,10.4c2.4,4.3,4,9,4.9,14.2c0.9,5.2,1.4,10.4,1.4,15.4s-0.5,10.2-1.4,15.4
			c-0.9,5.2-2.6,10-4.9,14.2c-2.4,4.3-5.6,7.7-9.7,10.4s-9.3,4-15.7,4c-6.4,0-11.6-1.3-15.7-4c-4.1-2.7-7.3-6.2-9.7-10.4
			c-2.4-4.3-4-9-4.9-14.2C8,335.2,7.5,330.1,7.5,325z M25.6,325c0,2.3,0.1,4.9,0.3,8.1c0.2,3.1,0.7,6.2,1.6,9c0.9,2.9,2.2,5.4,4,7.4
			c1.8,2,4.4,3,7.7,3c3.2,0,5.8-1,7.6-3c1.8-2,3.2-4.5,4.1-7.4c0.9-2.9,1.4-5.9,1.6-9c0.2-3.1,0.3-5.8,0.3-8.1
			c0-2.3-0.1-4.9-0.3-8.1c-0.2-3.1-0.7-6.2-1.6-9.1c-0.9-2.9-2.3-5.3-4.1-7.4c-1.9-2-4.4-3-7.6-3c-3.3,0-5.9,1-7.7,3
			c-1.8,2-3.2,4.5-4,7.4c-0.9,2.9-1.4,5.9-1.6,9.1C25.7,320.1,25.6,322.7,25.6,325z"/>
		<path fill="#211004" d="M74.7,304.7c0-3.3,0.6-6.4,1.9-9.3c1.2-2.9,2.9-5.4,5.1-7.6c2.1-2.2,4.6-3.9,7.5-5.1
			c2.9-1.2,6-1.9,9.3-1.9c3.3,0,6.4,0.6,9.3,1.9c2.9,1.2,5.4,3,7.5,5.1c2.1,2.2,3.8,4.7,5.1,7.6c1.2,2.9,1.9,6,1.9,9.3
			c0,3.3-0.6,6.4-1.9,9.3c-1.2,2.9-2.9,5.4-5.1,7.6c-2.1,2.2-4.6,3.9-7.5,5.1c-2.9,1.2-6,1.9-9.3,1.9c-3.3,0-6.4-0.6-9.3-1.9
			c-2.9-1.2-5.4-3-7.5-5.1c-2.1-2.2-3.8-4.7-5.1-7.6C75.3,311.1,74.7,308,74.7,304.7z M110,304.7c0-3.2-1.1-6-3.3-8.2
			c-2.2-2.3-4.9-3.4-8.1-3.4c-3.2,0-5.9,1.1-8.1,3.4c-2.2,2.3-3.3,5-3.3,8.2c0,3.2,1.1,6,3.3,8.2c2.2,2.3,4.9,3.4,8.1,3.4
			c3.2,0,5.9-1.1,8.1-3.4C108.9,310.7,110,307.9,110,304.7z M148.3,278.4l10.1,5.7l-49.8,87.5l-9.2-5.2L148.3,278.4z M135.4,345.2
			c0-3.3,0.6-6.4,1.9-9.3c1.2-2.9,2.9-5.4,5.1-7.6c2.1-2.2,4.6-3.9,7.5-5.1c2.9-1.2,6-1.9,9.3-1.9c3.3,0,6.4,0.6,9.3,1.9
			c2.9,1.2,5.4,3,7.5,5.1c2.1,2.2,3.8,4.7,5.1,7.6c1.2,2.9,1.9,6,1.9,9.3c0,3.3-0.6,6.4-1.9,9.4c-1.2,2.9-2.9,5.5-5.1,7.7
			c-2.1,2.2-4.6,3.9-7.5,5.1c-2.9,1.2-6,1.9-9.3,1.9c-3.3,0-6.4-0.6-9.3-1.9c-2.9-1.2-5.4-3-7.5-5.1c-2.1-2.2-3.8-4.7-5.1-7.7
			C136,351.6,135.4,348.5,135.4,345.2z M170.7,345.2c0-3.2-1.1-6-3.3-8.2c-2.2-2.3-4.9-3.4-8.1-3.4c-3.2,0-5.9,1.1-8.1,3.4
			c-2.2,2.3-3.3,5-3.3,8.2c0,3.3,1.1,6.1,3.3,8.3c2.2,2.3,4.9,3.4,8.1,3.4c3.2,0,5.9-1.1,8.1-3.4
			C169.5,351.2,170.7,348.5,170.7,345.2z"/>
	</g>
</g>
</svg>
